<svg width="12" height="13" viewBox="0 0 12 13" fill="none" xmlns="http://www.w3.org/2000/svg">
<path d="M12 6.50002V12.5C12 12.6326 11.9473 12.7598 11.8536 12.8536C11.7598 12.9473 11.6326 13 11.5 13H8C7.86739 13 7.74021 12.9473 7.64645 12.8536C7.55268 12.7598 7.5 12.6326 7.5 12.5V9.25002C7.5 9.18372 7.47366 9.12013 7.42678 9.07325C7.37989 9.02636 7.3163 9.00002 7.25 9.00002H4.75C4.6837 9.00002 4.62011 9.02636 4.57322 9.07325C4.52634 9.12013 4.5 9.18372 4.5 9.25002V12.5C4.5 12.6326 4.44732 12.7598 4.35355 12.8536C4.25979 12.9473 4.13261 13 4 13H0.5C0.367392 13 0.240215 12.9473 0.146447 12.8536C0.0526785 12.7598 0 12.6326 0 12.5V6.50002C0.000122931 6.23486 0.10556 5.98059 0.293125 5.79315L5.29313 0.79315C5.48064 0.605755 5.7349 0.500488 6 0.500488C6.2651 0.500488 6.51936 0.605755 6.70687 0.79315L11.7069 5.79315C11.8944 5.98059 11.9999 6.23486 12 6.50002Z" fill="currentColor"/>
</svg>
