<svg width="14" height="14" viewBox="0 0 14 14" fill="none" xmlns="http://www.w3.org/2000/svg">
<path d="M13.9488 5.07879C13.8863 4.88661 13.7683 4.71724 13.6097 4.59201C13.4511 4.46677 13.259 4.39128 13.0575 4.37504L9.37004 4.07754L7.94629 0.63441C7.8693 0.446796 7.73825 0.286316 7.56981 0.173372C7.40137 0.0604276 7.20315 0.00012207 7.00035 0.00012207C6.79756 0.00012207 6.59934 0.0604276 6.4309 0.173372C6.26246 0.286316 6.13141 0.446796 6.05442 0.63441L4.63192 4.07691L0.942542 4.37504C0.740778 4.3921 0.548535 4.46833 0.389901 4.59416C0.231267 4.72 0.113295 4.88986 0.0507674 5.08244C-0.0117605 5.27503 -0.0160642 5.48179 0.0383956 5.67682C0.0928554 5.87184 0.203657 6.04645 0.356917 6.17879L3.16942 8.60566L2.31254 12.2344C2.26462 12.4316 2.27635 12.6385 2.34625 12.8289C2.41615 13.0194 2.54107 13.1848 2.70514 13.3041C2.86921 13.4235 3.06505 13.4914 3.26778 13.4992C3.47051 13.5071 3.671 13.4545 3.84379 13.3482L7.00004 11.4057L10.1582 13.3482C10.331 13.4532 10.5311 13.5048 10.7332 13.4964C10.9353 13.4879 11.1304 13.4199 11.2939 13.3008C11.4574 13.1817 11.5821 13.0169 11.6521 12.8272C11.7221 12.6374 11.7345 12.4312 11.6875 12.2344L10.8275 8.60503L13.64 6.17816C13.7945 6.04605 13.9064 5.87106 13.9613 5.67535C14.0163 5.47964 14.0119 5.27202 13.9488 5.07879ZM12.99 5.42066L9.94629 8.04566C9.87688 8.10549 9.82524 8.18324 9.79703 8.27043C9.76881 8.35762 9.7651 8.45088 9.78629 8.54004L10.7163 12.465C10.7187 12.4704 10.7189 12.4766 10.717 12.4822C10.715 12.4877 10.7109 12.4923 10.7057 12.495C10.6944 12.5038 10.6913 12.5019 10.6819 12.495L7.26192 10.3919C7.18315 10.3435 7.0925 10.3178 7.00004 10.3178C6.90758 10.3178 6.81693 10.3435 6.73817 10.3919L3.31817 12.4963C3.30879 12.5019 3.30629 12.5038 3.29442 12.4963C3.28914 12.4936 3.2851 12.489 3.28312 12.4834C3.28115 12.4778 3.28139 12.4717 3.28379 12.4663L4.21379 8.54129C4.23499 8.45213 4.23127 8.35887 4.20306 8.27168C4.17484 8.18449 4.1232 8.10674 4.05379 8.04691L1.01004 5.42191C1.00254 5.41566 0.995667 5.41004 1.00192 5.39066C1.00817 5.37129 1.01317 5.37379 1.02254 5.37254L5.01754 5.05004C5.10917 5.04218 5.19686 5.0092 5.27096 4.95472C5.34506 4.90025 5.4027 4.8264 5.43754 4.74129L6.97629 1.01566C6.98129 1.00504 6.98317 1.00004 6.99817 1.00004C7.01317 1.00004 7.01504 1.00504 7.02004 1.01566L8.56254 4.74129C8.59771 4.82643 8.65572 4.9002 8.73016 4.95447C8.80461 5.00873 8.89259 5.04137 8.98442 5.04879L12.9794 5.37129C12.9888 5.37129 12.9944 5.37129 13 5.38941C13.0057 5.40754 13 5.41441 12.99 5.42066Z" fill="currentColor"/>
</svg>
