<svg width="15" height="11" viewBox="0 0 15 11" fill="none" xmlns="http://www.w3.org/2000/svg">
<path d="M14.3125 3.915C14.2197 3.78634 14.0976 3.6816 13.9563 3.60944C13.8151 3.53728 13.6586 3.49977 13.5 3.5H12.5V2.5C12.5 2.23478 12.3946 1.98043 12.2071 1.79289C12.0196 1.60536 11.7652 1.5 11.5 1.5H7.16687L5.43375 0.2C5.26036 0.0707391 5.05002 0.000625013 4.83375 0H1.5C1.23478 0 0.98043 0.105357 0.792893 0.292893C0.605357 0.48043 0.5 0.734784 0.5 1V10C0.5 10.1326 0.552678 10.2598 0.646447 10.3536C0.740215 10.4473 0.867392 10.5 1 10.5H12.1938C12.2987 10.5 12.401 10.467 12.4861 10.4056C12.5713 10.3443 12.6349 10.2577 12.6681 10.1581L14.4487 4.81625C14.4988 4.66594 14.5126 4.50591 14.4889 4.34926C14.4652 4.1926 14.4048 4.04379 14.3125 3.915ZM4.83375 1L6.7 2.4C6.78655 2.46491 6.89181 2.5 7 2.5H11.5V3.5H3.36062C3.15073 3.49998 2.94616 3.56601 2.77588 3.68873C2.6056 3.81145 2.47825 3.98463 2.41188 4.18375L1.5 6.91875V1H4.83375ZM11.8337 9.5H1.69375L3.36062 4.5H13.5L11.8337 9.5Z" fill="currentColor"/>
</svg>
