<svg width="14" height="13" viewBox="0 0 14 13" fill="none" xmlns="http://www.w3.org/2000/svg">
<path d="M12.9374 1.56251C12.2581 0.88492 11.3382 0.503877 10.3787 0.502706C9.41924 0.501535 8.49836 0.880331 7.81741 1.55626L6.99991 2.31564L6.18179 1.55376C5.50101 0.87489 4.57844 0.494261 3.61702 0.495609C2.6556 0.496957 1.7341 0.880171 1.05523 1.56095C0.376355 2.24173 -0.00427403 3.1643 -0.00292612 4.12572C-0.00157821 5.08714 0.381636 6.00864 1.06241 6.68751L6.64679 12.3538C6.69331 12.401 6.74877 12.4385 6.80993 12.4641C6.87109 12.4897 6.93673 12.5029 7.00304 12.5029C7.06934 12.5029 7.13499 12.4897 7.19615 12.4641C7.25731 12.4385 7.31276 12.401 7.35929 12.3538L12.9374 6.68751C13.6168 6.00775 13.9984 5.08605 13.9984 4.12501C13.9984 3.16397 13.6168 2.24227 12.9374 1.56251ZM12.228 5.98501L6.99991 11.2875L1.76866 5.98001C1.27636 5.4877 0.99978 4.81999 0.99978 4.12376C0.99978 3.42753 1.27636 2.75982 1.76866 2.26751C2.26097 1.7752 2.92868 1.49863 3.62491 1.49863C4.32114 1.49863 4.98885 1.7752 5.48116 2.26751L5.49366 2.28001L6.65929 3.36439C6.75182 3.45049 6.87352 3.49836 6.99991 3.49836C7.12631 3.49836 7.24801 3.45049 7.34054 3.36439L8.50616 2.28001L8.51866 2.26751C9.0113 1.77553 9.6792 1.49941 10.3754 1.49988C11.0717 1.50035 11.7392 1.77737 12.2312 2.27001C12.7231 2.76265 12.9993 3.43055 12.9988 4.12678C12.9983 4.82301 12.7213 5.49053 12.2287 5.98251L12.228 5.98501Z" fill="currentColor"/>
</svg>
